<svg xmlns="http://www.w3.org/2000/svg" viewBox="0 0 257.45 143.19"><defs><style>.cls-1{fill:#749cab;}.cls-2{fill:#9ecadf;}.cls-3{fill:#7aaf82;}.cls-4{fill:#578d61;}.cls-5{fill:#2e484f;}.cls-6{fill:#518b54;}.cls-7{fill:#457d4a;}.cls-8{fill:#396d40;}.cls-9{fill:#2f4f31;}.cls-10{fill:#264329;}.cls-11{fill:#5a757c;}.cls-12{fill:#4c6872;}.cls-13{fill:#51875b;}.cls-14{fill:#465f67;}</style></defs><title>birdID</title><g id="Camada_2" data-name="Camada 2"><g id="Camada_1-2" data-name="Camada 1"><path class="cls-1" d="M80.13,34.83l13-25.42,15.33-1.36,11.45,5,1.55,8.34-8.73,12.42Z"/><path class="cls-2" d="M119.71,12.9H162l-40.55,9.32Z"/><path class="cls-3" d="M80,34.8l6.42,16.71,26.34-17.65Z"/><path class="cls-4" d="M86.15,51.51,97.57,73.2l15.16-39.34Z"/><path class="cls-5" d="M44.46,10.11,80.13,35.18l6.26,16.33Z"/><path class="cls-6" d="M86.32,51.4,81.28,88,97.57,73.2Z"/><path class="cls-7" d="M55.15,59.37l31.17-8L81.28,88Z"/><path class="cls-8" d="M53.55,84.84,81.28,88,55.15,59.37Z"/><path class="cls-9" d="M65.19,123.69,81.28,88l-27.73-3.2Z"/><path class="cls-10" d="M55.15,59.37,42.93,89.06l2,54.13,20.23-19.5L53.55,84.84Z"/><path class="cls-11" d="M32.16,34.83,86.32,51.4l-31.17,8Z"/><path class="cls-12" d="M32.16,34.83,0,0,44.46,10.11,86.32,51.4Z"/><path class="cls-13" d="M137.92,85.61a10.81,10.81,0,0,1-10-6.13l-.2,5.64h-4V48.31h4.22V65.93a10.82,10.82,0,0,1,10-6.14,12.92,12.92,0,0,1,0,25.82Zm-.68-21.84a8.94,8.94,0,1,0,.19,0Z"/><path class="cls-13" d="M160.75,85.12h-4.17V64.26l-1.92-.2V60.28h6.09Z"/><path class="cls-13" d="M179.89,60.87l-.73,3.68a4.88,4.88,0,0,0-2.65-.78c-3.83,0-5.45,4.32-5.45,9V85.12h-4.22V60.28h4l.2,3.14c1.52-2.11,3.44-3.63,5.75-3.63A4.7,4.7,0,0,1,179.89,60.87Z"/><path class="cls-13" d="M194.08,59.79a10.86,10.86,0,0,1,10,6.14V48.31h4.22V85.12h-4l-.2-5.64a10.86,10.86,0,0,1-10,6.13,12.92,12.92,0,0,1,0-25.82Zm.64,21.84a8.49,8.49,0,1,0-.21,0h.21Z"/><path class="cls-14" d="M215.67,50.27H224V85.12h-8.35Z"/><path class="cls-14" d="M257.45,67.69c0,9.77-7.17,17.43-17.09,17.43h-12.9V50.27h12.91C250.28,50.27,257.45,57.93,257.45,67.69Zm-8.35,0c0-6.77-4.12-9.57-8.73-9.57H235.8V77.27h4.57C245,77.27,249.1,74.47,249.1,67.69Z"/></g></g></svg>